<svg width="170" height="102.06336862066843" viewBox="0 0 170 102.06336862066843" class="css-1j8o68f">
<defs id="SvgjsDefs1011"></defs>
<g id="SvgjsG1012" featurekey="aMgJeN-0" transform="matrix(1,0,0,1,35,0)" fill="#f25d9c">
<path xmlns="http://www.w3.org/2000/svg" d="M77.959,55.154H11.282C5.061,55.154,0,50.093,0,43.873c0-5.278,3.643-9.721,8.546-10.946  c2.188-5.469,7.248-9.386,13.149-10.089C22.317,10.14,32.843,0,45.693,0c9.417,0,17.822,5.536,21.723,13.756  c3.203-1.75,6.812-2.682,10.543-2.682c12.153,0,22.041,9.887,22.041,22.04C100,45.267,90.113,55.154,77.959,55.154L77.959,55.154z   M11.209,40.372c-1.897,0.039-3.429,1.595-3.429,3.501c0,1.931,1.57,3.501,3.501,3.501h66.678c7.863,0,14.26-6.397,14.26-14.26  c0-7.863-6.396-14.259-14.26-14.259c-3.683,0-7.18,1.404-9.847,3.952l-5.096,4.871l-1.404-6.908  C60.083,13.243,53.388,7.78,45.693,7.78c-8.958,0-16.247,7.288-16.247,16.246c0,0.728,0.054,1.483,0.159,2.246l0.73,5.287  l-5.256-0.923c-0.498-0.087-0.993-0.132-1.474-0.132c-4.002,0-7.479,2.842-8.267,6.757l-0.65,3.227l-3.29-0.106  C11.336,40.379,11.272,40.375,11.209,40.372L11.209,40.372z"></path></g><g id="SvgjsG1013" featurekey="8L6ael-0" transform="matrix(1.8042241158733088,0,0,1.8042241158733088,-2.916830292148851,65.97888200159676)" fill="#590d82"><path d="M15.36 5 q0.28 0 0.49 0.21 t0.21 0.49 l0 13.4 q0 0.28 -0.21 0.49 t-0.49 0.21 l-1.52 0 q-0.3 0 -0.5 -0.21 t-0.2 -0.49 l0 -9.04 l-3.7 4.76 q-0.22 0.26 -0.56 0.26 l0 0 q-0.16 0 -0.32 -0.07 t-0.24 -0.21 l-6.56 -8.68 q-0.12 -0.14 -0.14 -0.35 t0.08 -0.38 t0.26 -0.28 t0.36 -0.11 l1.76 0 q0.34 0 0.56 0.28 l4.24 5.6 l4.14 -5.6 q0.22 -0.28 0.58 -0.28 l1.76 0 z M3.84 14.7 q0.28 0 0.49 0.2 t0.21 0.5 l0 3.7 q0 0.28 -0.21 0.49 t-0.49 0.21 l-1.52 0 q-0.28 0 -0.49 -0.21 t-0.21 -0.49 l0 -3.7 q0 -0.3 0.21 -0.5 t0.49 -0.2 l1.52 0 z M34.228 18.86 q0.14 0.32 -0.07 0.65 t-0.57 0.33 l-13.32 0 q-0.18 0 -0.34 -0.09 t-0.24 -0.23 q-0.22 -0.32 -0.06 -0.66 l0.62 -1.46 q0.08 -0.2 0.26 -0.32 t0.38 -0.12 l9.32 0 l-3.28 -7.84 l-2.68 6.4 q-0.08 0.2 -0.25 0.31 t-0.39 0.11 l-1.68 0 q-0.38 0 -0.6 -0.32 q-0.08 -0.14 -0.1 -0.32 t0.04 -0.34 l4.06 -9.52 q0.08 -0.2 0.25 -0.32 t0.39 -0.12 l1.92 0 q0.22 0 0.39 0.12 t0.25 0.32 z M47.256 14.1 l3.02 4.62 q0.22 0.36 0.02 0.72 q-0.08 0.16 -0.25 0.26 t-0.35 0.1 l-1.82 0 q-0.18 0 -0.34 -0.09 t-0.24 -0.23 l-3.04 -4.82 l-3.56 0 l0 4.44 q0 0.28 -0.21 0.49 t-0.49 0.21 l-1.52 0 q-0.28 0 -0.49 -0.21 t-0.21 -0.49 l0 -6.58 q0 -0.28 0.21 -0.49 t0.49 -0.21 l6.16 0 q1.76 0 2.34 -1 q0.2 -0.32 0.2 -0.92 q0 -0.94 -0.62 -1.48 q-0.64 -0.58 -1.84 -0.58 l-6.24 0 q-0.28 0 -0.49 -0.21 t-0.21 -0.49 l0 -1.44 q0 -0.28 0.21 -0.49 t0.49 -0.21 l6.42 0 q2.34 0 3.74 1.32 q1.46 1.32 1.46 3.58 q0 1.46 -0.64 2.49 t-1.86 1.57 z M67.16399999999999 18.7 q0.12 0.14 0.14 0.34 t-0.07 0.38 t-0.26 0.28 t-0.37 0.1 l-1.9 0 q-0.18 0 -0.33 -0.08 t-0.25 -0.22 l-4.78 -6.88 l-1.96 1.84 l0 4.64 q0 0.28 -0.21 0.49 t-0.49 0.21 l-1.52 0 q-0.28 0 -0.49 -0.21 t-0.21 -0.49 l0 -5.56 q0 -0.32 0.22 -0.5 l8.36 -7.84 q0.2 -0.2 0.48 -0.2 l2.16 0 q0.2 0 0.38 0.12 t0.26 0.32 t0.04 0.41 t-0.2 0.37 l-4.68 4.4 z M55.163999999999994 10.1 q-0.28 0 -0.49 -0.2 t-0.21 -0.5 l0 -3.7 q0 -0.28 0.21 -0.49 t0.49 -0.21 l1.52 0 q0.28 0 0.49 0.21 t0.21 0.49 l0 3.7 q0 0.3 -0.21 0.5 t-0.49 0.2 l-1.52 0 z M78.812 11.82 q0.58 0.42 1.02 1.02 q0.8 1.1 0.8 2.36 q0 1.2 -0.38 2.02 q-0.36 0.9 -1.1 1.5 q-1.42 1.28 -3.95 1.28 t-4 -1.29 t-1.47 -3.37 q0 -1.38 0.82 -2.5 q0.42 -0.6 1.02 -1.02 q-0.32 -0.28 -0.46 -0.44 q-0.86 -0.98 -0.86 -2.34 q0 -1.84 1.3 -2.94 t3.63 -1.1 t3.63 1.1 t1.3 2.94 q0 1.76 -1.3 2.78 z M77.13199999999999 16.62 q0.6 -0.46 0.6 -1.3 q0 -0.48 -0.17 -0.84 t-0.53 -0.66 q-0.68 -0.54 -1.84 -0.54 t-1.86 0.56 t-0.7 1.43 t0.6 1.35 q0.7 0.54 1.96 0.54 t1.94 -0.54 z M73.612 8.24 q-0.46 0.28 -0.46 0.9 t0.52 0.94 q0.66 0.42 1.52 0.42 t1.44 -0.38 q0.3 -0.2 0.44 -0.43 t0.14 -0.55 q0 -0.6 -0.44 -0.9 q-0.62 -0.4 -1.6 -0.4 t-1.56 0.4 z M86.2 5 q0.3 0 0.51 0.21 t0.21 0.51 l0 1.46 q0 0.3 -0.21 0.51 t-0.51 0.21 l-2.06 0 q-0.28 0 -0.49 -0.21 t-0.21 -0.51 l0 -1.46 q0 -0.3 0.21 -0.51 t0.49 -0.21 l2.06 0 z M95.14 5 q0.28 0 0.49 0.21 t0.21 0.51 l0 1.46 q0 0.3 -0.21 0.51 t-0.49 0.21 l-4.02 0 l0 11.36 q0 0.28 -0.21 0.49 t-0.49 0.21 l-1.54 0 q-0.3 0 -0.51 -0.21 t-0.21 -0.49 l0 -13.54 q0 -0.3 0.21 -0.51 t0.51 -0.21 l6.26 0 z">
</path></g></svg>